{"accessors" : [{"bufferView" : 0, "byteOffset" : 0, "componentType" : 5125, "count" : 485664, "type" : "SCALAR", "max" : [485663], "min" : [0]}, {"bufferView" : 1, "byteOffset" : 0, "componentType" : 5126, "count" : 485664, "type" : "VEC3", "max" : [0.968232989311218, 0.0900809988379478, 5.3526668548584], "min" : [-3.88924908638, -2.14143204689026, 0.843029022216797]}, {"bufferView" : 1, "byteOffset" : 12, "componentType" : 5126, "count" : 485664, "type" : "VEC2", "max" : [0.999877989292145, -0.000121999997645617], "min" : [0.000121999997645617, -0.999877989292145]}, {"bufferView" : 1, "byteOffset" : 20, "componentType" : 5126, "count" : 485664, "type" : "VEC3", "max" : [1.00000441074371, 1.00000441074371, 1.00000441074371], "min" : [-1.00000441074371, -1.00000441074371, -1.00000441074371]}], "asset" : {"generator" : "Aspose.3D 20.2.1", "version" : "2.0"}, "buffers" : [{"uri" : "buffer.bin", "byteLength" : 17483912}], "bufferViews" : [{"buffer" : 0, "byteOffset" : 0, "byteLength" : 1942656, "target" : 34963}, {"buffer" : 0, "byteOffset" : 1942660, "byteLength" : 15541248, "byteStride" : 32, "target" : 34962}], "meshes" : [{"primitives" : [{"attributes" : {"POSITION" : 1, "TEXCOORD_0" : 2, "NORMAL" : 3}, "indices" : 0, "mode" : 4}]}], "nodes" : [{"mesh" : 0, "name" : ""}], "scene" : 0, "scenes" : [{"nodes" : [0]}]}